# xmcd
#
# Track frame offsets: 
#        150
#        19540
#        40388
#        58073
#        69398
#        79243
#        89333
#        113325
#        120280
#        130515
#        139070
#        146055
#        151275
#        156903
#        166473
#        171490
#        183750
#        191068
#        196030
#        215033
#        249760
#        262890
#
# Disc length: 3915 seconds
#
# Revision: 2
# Processed by: cddbd v1.5.2PL0 Copyright (c) Steve Scherf et al.
# Submitted via: ExactAudioCopy v1.0b1
#
DISCID=270f4916
DTITLE=Sabine Meyer im Trio di Clarone - Blues for Sabine
DYEAR=1994
DGENRE=Blues
TTITLE0=Sabine Meyer, Eddie Daniels, Wolfgang Meyer, Reiner Wehle, Pet
TTITLE0=er Handsworth, Trio di Clarone - Clarinet Connections: I. The 
TTITLE0=Clarinet Connection
TTITLE1=Sabine Meyer, Eddie Daniels, Wolfgang Meyer, Reiner Wehle, Pet
TTITLE1=er Handsworth, Trio di Clarone - Clarinet Connections: II. Con
TTITLE1=tacts
TTITLE2=Sabine Meyer, Eddie Daniels, Wolfgang Meyer, Reiner Wehle, Pet
TTITLE2=er Handsworth, Trio di Clarone - Clarinet Connections: III. En
TTITLE2=counter
TTITLE3=Sabine Meyer, Eddie Daniels, Wolfgang Meyer, Reiner Wehle, Pet
TTITLE3=er Handsworth, Trio di Clarone - Petit Quatuor: I. Gaguenardis
TTITLE3=e
TTITLE4=Sabine Meyer, Eddie Daniels, Wolfgang Meyer, Reiner Wehle, Pet
TTITLE4=er Handsworth, Trio di Clarone - Petit Quatuor: II. Cantilene
TTITLE5=Sabine Meyer, Eddie Daniels, Wolfgang Meyer, Reiner Wehle, Tri
TTITLE5=o di Clarone - Petit Quatuor: III. Serenade comique
TTITLE6=Sabine Meyer, Eddie Daniels, Wolfgang Meyer, Reiner Wehle, Pet
TTITLE6=er Handsworth, Trio di Clarone - Chelsea Bridge
TTITLE7=Sabine Meyer, Wolfgang Meyer, Trio di Clarone - Sonate: I. Pre
TTITLE7=sto
TTITLE8=Sabine Meyer, Wolfgang Meyer, Trio di Clarone - Sonate: II. An
TTITLE8=dante
TTITLE9=Sabine Meyer, Wolfgang Meyer, Trio di Clarone - Sonate: III. V
TTITLE9=if
TTITLE10=Sabine Meyer, Trio di Clarone - Three Pieces for Clarinet Sol
TTITLE10=o: I
TTITLE11=Sabine Meyer, Trio di Clarone - Three Pieces for Clarinet Sol
TTITLE11=o: II
TTITLE12=Sabine Meyer, Trio di Clarone - Three Pieces for Clarinet Sol
TTITLE12=o: III
TTITLE13=Sabine Meyer, Reiner Wehle, Trio di Clarone - Jazz Suite: Per
TTITLE13=petuum
TTITLE14=Wolfgang Meyer, Peter Handsworth, Trio di Clarone - Jazz Suit
TTITLE14=e: No Limits
TTITLE15=Wolfgang Meyer, Reiner Wehle, Trio di Clarone - Jazz Suite: B
TTITLE15=lue Igor
TTITLE16=Wolfgang Meyer, Reiner Wehle, Trio di Clarone - Jazz Suite: N
TTITLE16=o Sync
TTITLE17=Wolfgang Meyer, Peter Handsworth, Trio di Clarone - Jazz Suit
TTITLE17=e: Sweet and Punk
TTITLE18=Sabine Meyer, Eddie Daniels, Wolfgang Meyer, Reiner Wehle, Pe
TTITLE18=ter Handsworth, Trio di Clarone - Divertimento
TTITLE19=Sabine Meyer, Eddie Daniels, Wolfgang Meyer, Reiner Wehle, Pe
TTITLE19=ter Handsworth, Trio di Clarone - Blues for Sabine
TTITLE20=Sabine Meyer, Eddie Daniels, Wolfgang Meyer, Reiner Wehle, Pe
TTITLE20=ter Handsworth, Trio di Clarone - Templet
TTITLE21=Sabine Meyer, Eddie Daniels, Wolfgang Meyer, Reiner Wehle, Pe
TTITLE21=ter Handsworth, Trio di Clarone - A Little History
EXTD=
EXTT0=
EXTT1=
EXTT2=
EXTT3=
EXTT4=
EXTT5=
EXTT6=
EXTT7=
EXTT8=
EXTT9=
EXTT10=
EXTT11=
EXTT12=
EXTT13=
EXTT14=
EXTT15=
EXTT16=
EXTT17=
EXTT18=
EXTT19=
EXTT20=
EXTT21=
PLAYORDER=
